<?xml version="1.0" encoding="utf-8"?>
<svg version="1.0" width="450px" height="450px" viewBox="0 0 450 450" preserveAspectRatio="xMidYMid meet" xmlns="http://www.w3.org/2000/svg">
<filter id="filtro" height="130%">
      <feGaussianBlur in="SourceAlpha" stdDeviation="1"/> <!-- stdDeviation is how much to blur -->
        <feOffset dx="5" dy="5" result="offsetblur"/> <!-- how much to offset -->
        <feComponentTransfer>
          <feFuncA type="linear" slope="0.5"/> <!-- slope is the opacity of the shadow -->
        </feComponentTransfer>
        <feMerge> 
          <feMergeNode/> <!-- this contains the offset blurred image -->
          <feMergeNode in="SourceGraphic"/> <!-- this contains the element that the filter is applied to -->
        </feMerge>
    </filter>
  <circle filter="url(#filtro)" cx="222.642" cy="220.615" r="197.896" style="fill: rgb(255, 255, 255);"/>
  <g transform="matrix(0.035357, 0, 0, -0.035357, 49.148724, 297.97464)" fill="#283593" stroke="none">
    <path d="M 6469.493 4840.506 C 6450.426 4825.479 6202 4623 5930 4393 C 5387 3933 5333 3879 5245 3705 C 5188 3593 5166 3495 5173 3384 C 5184 3197 5282 3087 5685 2809 C 6194 2457 6388 2234 6478 1901 C 6501 1815 6503 1786 6504 1620 C 6505 1422 6495 1353 6444 1193 C 6403 1063 6289 846 6202 730 C 6122 624 5971 470 5891 412 L 5847 380 L 7589 380 L 9332 380 L 9313 413 C 9302 430 8822 1210 8245 2145 C 7669 3080 7062 4063 6898 4330 C 6619 4783 6543.786 4859.472 6531.44 4869.013 C 6513.286 4883.043 6482.654 4850.586 6469.493 4840.506 Z" style="fill: rgb(40, 53, 147);"/>
    <path d="M4436 3136 l-478 -403 -32 36 c-18 20 -162 188 -320 374 -159 186 -301 344 -318 353 -25 13 -35 13 -59 3 -18 -7 -263 -266 -622 -658 -326 -355 -944 -1028 -1372 -1496 -429 -467 -802 -873 -828 -902 l-48 -52 158 -3 c87 -2 941 -3 1898 -3 l1740 0 120 23 c312 60 506 126 785 268 405 205 682 467 790 747 48 124 63 200 63 332 1 136 -14 204 -69 323 -73 160 -181 281 -480 538 -291 251 -391 366 -450 520 -36 95 -43 230 -16 332 10 39 18 72 18 72 -1 -1 -216 -182 -480 -404z" style="fill: rgb(40, 53, 147);"/>
  </g>
</svg>